<?xml version="1.0" standalone="no"?>
<!DOCTYPE svg PUBLIC "-//W3C//DTD SVG 20010904//EN"
 "http://www.w3.org/TR/2001/REC-SVG-20010904/DTD/svg10.dtd">
<svg version="1.0" xmlns="http://www.w3.org/2000/svg"
 width="400.000000pt" height="400.000000pt" viewBox="0 0 400.000000 400.000000"
 preserveAspectRatio="xMidYMid meet">
<metadata>
Created by potrace 1.14, written by Peter Selinger 2001-2017
</metadata>
<g transform="translate(0.000000,400.000000) scale(0.100000,-0.100000)"
fill="#000000" stroke="none">
<path d="M2730 3975 c0 -25 31 -50 45 -37 5 4 5 2 1 -5 -8 -15 2 -21 50 -27
21 -2 44 -5 49 -6 27 -6 36 1 30 23 -6 22 -6 22 12 2 31 -33 57 -44 77 -33 13
8 23 5 41 -12 l24 -23 6 29 c4 16 7 32 8 36 1 4 20 -2 43 -12 46 -22 80 -20
78 4 -1 9 2 16 6 16 4 0 10 9 13 20 4 14 14 20 35 20 17 0 34 5 37 10 4 7 13
6 27 -1 24 -13 95 -6 111 10 8 8 -89 11 -341 11 l-352 0 0 -25z"/>
<path d="M3456 3990 c7 -7 19 -7 35 -1 23 9 22 10 -10 10 -24 1 -32 -2 -25 -9z"/>
<path d="M3633 3988 c21 -7 32 -7 40 1 8 8 0 11 -28 10 -40 -1 -40 -1 -12 -11z"/>
<path d="M2660 3969 c0 -11 -4 -17 -10 -14 -6 3 -10 -5 -10 -19 0 -27 15 -42
25 -25 4 5 13 8 21 5 19 -7 18 4 -3 21 -13 10 -15 16 -5 19 16 8 15 21 -3 28
-10 4 -15 -1 -15 -15z"/>
<path d="M2515 3861 c-6 -11 20 -33 28 -24 4 3 7 10 7 14 0 11 -29 19 -35 10z"/>
<path d="M3860 3861 c-8 -5 -17 -8 -21 -6 -4 3 -9 -9 -13 -26 -5 -24 -10 -29
-24 -24 -11 3 -24 -1 -32 -10 -9 -11 -9 -15 -1 -15 8 0 10 -11 5 -36 -7 -36
-7 -37 25 -32 17 2 31 1 31 -4 0 -4 -15 -8 -33 -8 -18 0 -59 -14 -91 -30 -55
-29 -62 -30 -105 -20 -117 28 -161 30 -161 6 0 -7 13 -16 29 -19 27 -6 30 -10
36 -62 4 -30 12 -58 17 -61 12 -8 -10 -34 -28 -34 -8 0 -14 -7 -14 -15 0 -8
-5 -15 -11 -15 -6 0 -17 -7 -25 -15 -9 -8 -23 -15 -32 -15 -15 0 -47 -48 -38
-57 2 -2 14 1 27 6 17 6 28 5 37 -5 16 -18 15 -44 -2 -44 -8 0 -17 -6 -19 -12
-3 -7 -6 -4 -6 7 -1 29 -23 2 -23 -29 0 -16 -7 -28 -19 -31 -23 -8 -69 -73
-69 -97 0 -10 -4 -18 -10 -18 -22 0 -9 -41 19 -58 15 -9 29 -21 30 -27 2 -5 7
-16 13 -22 7 -9 7 -17 -1 -27 -6 -7 -8 -21 -5 -31 10 -25 24 1 24 46 0 43 26
133 47 166 8 13 39 40 68 61 29 20 53 40 54 45 1 4 1 12 1 19 0 7 6 6 18 -4 9
-8 25 -13 36 -10 15 3 17 9 10 35 -19 79 8 241 47 283 12 13 24 22 26 21 1 -2
-3 -28 -11 -57 -8 -29 -12 -59 -9 -66 2 -7 -1 -23 -7 -35 -7 -12 -14 -55 -15
-95 -2 -57 1 -71 11 -67 8 3 14 13 14 22 0 9 4 22 9 30 8 12 13 12 33 -1 14
-9 38 -13 63 -11 l40 5 -36 -26 c-20 -14 -76 -39 -123 -55 -104 -36 -106 -37
-106 -62 0 -10 -7 -19 -15 -19 -8 0 -15 -7 -15 -16 0 -8 -4 -13 -9 -10 -24 15
-31 -19 -40 -191 -1 -7 -6 -13 -12 -13 -7 0 -22 -11 -35 -25 -19 -21 -22 -32
-18 -75 4 -42 2 -49 -11 -44 -12 5 -15 -2 -15 -37 0 -24 5 -60 11 -79 36 -118
38 -138 14 -183 -33 -62 -41 -104 -19 -109 11 -2 18 -15 20 -36 3 -23 0 -31
-8 -26 -7 4 -8 3 -4 -5 4 -6 0 -25 -8 -42 -15 -29 -14 -31 5 -36 15 -4 17 -8
8 -14 -9 -5 -10 -11 -2 -21 8 -9 8 -26 1 -60 -9 -39 -8 -49 5 -63 12 -11 17
-33 17 -68 0 -69 16 -125 44 -151 22 -20 22 -25 14 -111 -5 -49 -7 -227 -3
-394 l5 -304 -132 8 c-73 4 -141 12 -152 17 -22 12 -199 14 -471 6 -119 -4
-259 -1 -375 7 -102 8 -286 14 -410 15 -124 1 -250 6 -280 12 -30 5 -183 13
-340 18 -174 5 -322 15 -380 24 -52 9 -147 23 -210 31 -63 7 -149 21 -190 30
-41 9 -147 20 -235 25 -88 5 -167 11 -175 14 -8 2 -39 7 -68 11 l-52 6 0 -287
c0 -259 2 -289 18 -308 14 -17 14 -19 0 -8 -14 11 -16 9 -15 -25 0 -21 5 -41
11 -45 7 -5 5 -8 -4 -8 -13 0 -13 -1 0 -10 10 -6 11 -10 3 -10 -10 0 -13 -68
-13 -305 l0 -305 1044 0 1045 0 40 48 c23 26 41 52 41 58 0 16 70 74 88 74 10
0 49 9 87 19 39 11 91 25 118 32 26 6 47 16 47 20 0 5 3 8 8 7 22 -6 147 16
215 38 43 14 87 22 96 19 18 -5 135 26 178 47 12 6 35 9 52 6 16 -2 28 -1 25
4 -3 4 9 8 26 8 17 0 45 7 63 17 18 9 46 18 62 20 49 5 168 23 198 29 21 5 27
3 27 -10 0 -18 27 -21 50 -6 13 8 12 10 -5 11 -11 1 -23 1 -26 1 -5 -1 -5 26
-1 66 1 7 18 12 47 12 28 0 47 5 52 15 12 21 47 8 67 -26 19 -32 12 -37 -20
-14 -12 8 -25 11 -29 7 -3 -4 -11 -8 -16 -8 -5 -1 -13 -2 -19 -3 -24 -3 -7
-21 19 -21 35 0 53 -20 19 -21 -23 -1 -23 -1 2 -9 23 -7 22 -8 -10 -10 l-35
-1 40 -19 c41 -19 70 -26 47 -11 -8 5 5 8 33 9 44 0 47 -1 42 -24 -2 -13 -1
-21 3 -19 4 3 13 -2 20 -10 7 -8 9 -15 4 -15 -16 -1 130 -70 148 -70 9 0 24
-3 33 -7 14 -5 12 -8 -11 -20 -29 -13 -28 -13 16 -9 25 2 39 2 32 -1 -6 -3
-10 -9 -7 -13 3 -5 -8 -7 -24 -5 -21 3 -28 0 -27 -10 3 -18 16 -32 16 -17 0 7
9 12 21 12 15 0 19 -5 15 -15 -5 -13 -1 -12 19 2 l24 18 1 438 c0 343 -3 437
-12 437 -10 0 -12 38 -10 167 2 93 8 172 13 177 5 6 9 180 9 402 l0 391 -68
-22 c-38 -12 -86 -32 -108 -43 -50 -27 -154 -72 -165 -72 -5 0 -32 -11 -61
-25 -28 -14 -57 -25 -63 -25 -17 0 -26 -94 -20 -193 4 -63 3 -75 -5 -52 -12
36 -15 182 -4 209 5 14 4 17 -4 12 -7 -4 -12 -3 -12 3 0 5 4 12 9 15 17 11 21
79 5 97 -9 10 -13 23 -8 30 4 7 7 32 5 56 -4 64 13 78 19 15 l5 -52 35 23 c71
48 219 78 433 87 11 0 9 1580 -3 1580 -5 0 -10 -7 -10 -15 0 -19 -10 -19 -24
0 -14 19 -76 29 -96 16z m-13 -497 c-3 -3 -12 -4 -19 -1 -8 3 -5 6 6 6 11 1
17 -2 13 -5z m-367 -44 c0 -5 -4 -10 -10 -10 -5 0 -10 5 -10 10 0 6 5 10 10
10 6 0 10 -4 10 -10z m-17 -35 c-3 -9 -8 -14 -10 -11 -3 3 -2 9 2 15 9 16 15
13 8 -4z m104 -677 c-2 -13 -4 -3 -4 22 0 25 2 35 4 23 2 -13 2 -33 0 -45z
m-16 -94 c-5 -16 -10 -21 -10 -12 -1 18 10 51 15 45 2 -1 -1 -16 -5 -33z m-24
-181 c-3 -10 -5 -4 -5 12 0 17 2 24 5 18 2 -7 2 -21 0 -30z m147 -325 c9 -35
8 -38 -15 -38 -18 0 -19 3 -9 15 7 8 10 22 6 30 -3 8 -2 15 3 15 5 0 11 -10
15 -22z m-49 -46 c5 -25 37 -94 59 -130 5 -9 12 -10 20 -3 9 8 18 -8 37 -61
15 -45 32 -76 48 -86 22 -15 22 -16 5 -23 -17 -7 -17 -8 4 -8 15 -1 22 -7 22
-20 0 -11 3 -26 6 -35 4 -10 1 -16 -7 -16 -7 0 -9 3 -6 6 3 4 1 16 -4 27 -7
13 -14 16 -18 9 -4 -7 -31 36 -61 96 -30 59 -65 123 -78 144 -27 42 -55 128
-42 128 4 0 11 -13 15 -28z m-98 -259 c-3 -10 -5 -2 -5 17 0 19 2 27 5 18 2
-10 2 -26 0 -35z m15 -66 c3 -13 1 -32 -3 -43 -5 -13 -8 -7 -8 24 -1 46 4 55
11 19z m5 -559 c-3 -8 -6 -5 -6 6 -1 11 2 17 5 13 3 -3 4 -12 1 -19z m20 -40
c-3 -8 -6 -5 -6 6 -1 11 2 17 5 13 3 -3 4 -12 1 -19z m-80 -195 c-2 -16 -4 -3
-4 27 0 30 2 43 4 28 2 -16 2 -40 0 -55z m20 -145 c-3 -8 -6 -5 -6 6 -1 11 2
17 5 13 3 -3 4 -12 1 -19z m-3237 -138 c0 -5 -5 -10 -11 -10 -5 0 -7 5 -4 10
3 6 8 10 11 10 2 0 4 -4 4 -10z m-191 -56 c-6 -7 -17 -10 -26 -7 -17 7 -2 20
22 20 11 0 12 -4 4 -13z m321 -68 c0 -3 -4 -8 -10 -11 -5 -3 -10 -1 -10 4 0 6
5 11 10 11 6 0 10 -2 10 -4z m2150 -20 c0 -3 -4 -8 -10 -11 -5 -3 -10 -1 -10
4 0 6 5 11 10 11 6 0 10 -2 10 -4z m-2060 -58 c0 -6 -6 -5 -15 2 -8 7 -15 14
-15 16 0 2 7 1 15 -2 8 -4 15 -11 15 -16z m-333 -24 c-3 -3 -12 -4 -19 -1 -8
3 -5 6 6 6 11 1 17 -2 13 -5z m2392 -27 c-2 -1 -12 -9 -22 -16 -15 -12 -17
-12 -11 3 3 9 13 16 22 16 8 0 13 -1 11 -3z m-1744 -37 c-10 -11 -22 -17 -26
-14 -16 10 -9 23 14 27 12 2 24 5 26 6 2 0 -4 -8 -14 -19z"/>
<path d="M3530 3706 c0 -9 5 -16 10 -16 6 0 10 4 10 9 0 6 -4 13 -10 16 -5 3
-10 -1 -10 -9z"/>
<path d="M3234 3478 c-5 -7 -2 -9 8 -5 23 8 39 -12 27 -35 -17 -31 1 -42 27
-17 13 12 24 25 24 28 0 7 -58 41 -70 41 -5 0 -12 -5 -16 -12z"/>
<path d="M3337 3410 c7 -26 16 -31 33 -18 12 8 12 9 -2 4 -12 -3 -18 0 -18 9
0 7 -4 16 -9 19 -5 4 -7 -3 -4 -14z"/>
<path d="M3307 3370 c-9 -12 -20 -20 -25 -16 -5 3 -18 -1 -28 -9 -16 -12 -17
-16 -5 -24 9 -6 22 -6 32 0 10 5 27 9 38 9 28 0 35 16 18 41 l-15 20 -15 -21z"/>
<path d="M3436 3143 c-6 -14 -5 -15 5 -6 7 7 10 15 7 18 -3 3 -9 -2 -12 -12z"/>
<path d="M2668 2914 c-2 -19 0 -38 5 -41 5 -3 2 -10 -7 -15 -21 -12 -44 1 -25
13 8 5 9 9 3 9 -6 0 -17 -7 -24 -15 -16 -19 3 -45 31 -45 11 0 19 -4 19 -8 0
-4 21 -14 47 -21 35 -11 53 -11 75 -3 15 5 26 6 22 1 -7 -12 3 -11 27 1 10 6
19 15 19 21 0 6 -5 7 -11 4 -5 -4 -18 0 -27 8 -10 9 -29 18 -44 21 -15 2 -32
7 -38 11 -18 11 -11 42 11 48 25 7 16 27 -11 27 -10 0 -22 5 -25 10 -3 6 -14
10 -24 10 -14 0 -20 -9 -23 -36z"/>
<path d="M3098 2863 c-24 -6 -23 -24 2 -30 11 -3 20 -9 20 -13 0 -5 10 -6 22
-2 14 3 19 1 14 -6 -3 -6 1 -17 9 -25 8 -9 15 -25 15 -36 0 -15 6 -21 21 -21
14 0 19 5 16 14 -4 9 -1 13 6 10 7 -2 18 5 25 17 16 25 6 40 -50 75 -36 23
-62 27 -100 17z"/>
<path d="M2930 2856 c0 -2 7 -6 15 -10 8 -3 15 -1 15 4 0 6 -7 10 -15 10 -8 0
-15 -2 -15 -4z"/>
<path d="M3948 2223 c7 -3 16 -2 19 1 4 3 -2 6 -13 5 -11 0 -14 -3 -6 -6z"/>
<path d="M3840 2198 c-59 -22 -93 -44 -44 -28 82 26 137 49 119 49 -11 0 -45
-9 -75 -21z"/>
<path d="M3675 2190 c-3 -5 1 -10 9 -10 8 0 18 5 21 10 3 6 -1 10 -9 10 -8 0
-18 -4 -21 -10z"/>
<path d="M3625 2159 c-4 -6 -5 -12 -2 -15 2 -3 7 2 10 11 7 17 1 20 -8 4z"/>
<path d="M3703 2150 c-18 -11 -33 -22 -33 -24 0 -10 40 8 56 25 22 24 17 24
-23 -1z"/>
<path d="M3468 394 c9 -18 8 -25 -7 -38 -18 -16 -20 -16 -30 1 -7 13 -13 15
-18 6 -5 -6 -23 -10 -41 -9 -18 1 -35 -1 -38 -6 -3 -4 -17 -8 -32 -9 l-27 -1
25 -8 c14 -4 19 -8 13 -9 -18 -1 -16 -17 2 -19 8 -1 22 -3 30 -4 9 -1 14 -7
11 -15 -3 -7 -1 -13 4 -13 6 0 10 9 10 19 0 19 36 34 87 35 12 1 28 10 36 20
20 27 50 31 42 5 -4 -10 -2 -19 4 -19 13 0 35 39 27 48 -3 3 -6 -1 -6 -8 0 -9
-6 -8 -20 5 -11 10 -17 22 -14 26 7 12 -7 11 -26 -1 -9 -6 -19 -5 -29 3 -12
10 -13 9 -3 -9z"/>
<path d="M3670 375 c-11 -13 -10 -14 4 -9 9 3 16 10 16 15 0 13 -6 11 -20 -6z"/>
<path d="M3580 370 c0 -14 15 -19 29 -11 9 6 7 10 -8 14 -12 3 -21 1 -21 -3z"/>
<path d="M3210 340 c0 -5 -14 -10 -31 -10 -17 0 -28 -4 -24 -10 4 -6 -2 -7
-17 -1 -31 11 -94 2 -109 -15 -10 -12 -8 -18 7 -30 10 -9 14 -13 7 -9 -16 7
-63 -4 -63 -16 0 -5 13 -9 30 -9 17 0 33 -7 39 -17 9 -16 11 -15 19 7 5 14 8
28 5 33 -2 4 8 7 24 8 27 0 27 1 6 11 -30 14 -29 23 2 23 14 0 25 -5 25 -12 0
-8 15 -10 45 -7 55 5 94 22 75 34 -7 4 -9 13 -6 19 5 7 -1 11 -13 11 -12 0
-21 -4 -21 -10z"/>
<path d="M3640 330 c8 -5 28 -10 44 -10 39 0 30 6 -19 13 -27 4 -35 3 -25 -3z"/>
<path d="M3475 280 c-3 -5 -2 -10 4 -10 5 0 13 5 16 10 3 6 2 10 -4 10 -5 0
-13 -4 -16 -10z"/>
<path d="M3541 243 c-19 -4 -21 -7 -10 -14 11 -7 11 -9 1 -9 -7 0 -10 -4 -7
-10 12 -19 33 -10 37 15 3 14 5 24 4 24 0 -1 -12 -4 -25 -6z"/>
<path d="M2670 230 c-8 -5 -28 -10 -43 -10 -16 0 -26 -4 -22 -10 4 -6 -7 -10
-25 -10 -18 0 -29 -4 -25 -10 3 -5 0 -8 -7 -5 -18 6 -63 -30 -54 -44 4 -6 19
-11 34 -11 l27 -1 -30 -13 c-16 -7 -33 -11 -37 -9 -5 2 -8 -2 -8 -9 0 -13 -44
-38 -67 -38 -16 0 -114 -52 -109 -58 3 -2 14 1 25 8 14 7 21 7 21 0 0 -7 61
-10 179 -10 147 1 180 4 185 16 4 9 19 14 48 13 35 -1 38 -2 18 -8 l-25 -7 25
-7 c14 -4 48 -6 75 -6 40 1 45 3 25 9 -16 5 19 8 95 9 66 1 165 4 219 8 86 5
99 4 94 -9 -5 -12 9 -14 98 -12 58 2 110 6 116 10 7 4 8 3 4 -5 -11 -17 95
-12 112 6 17 17 52 17 78 -1 22 -15 148 -20 138 -5 -3 5 0 9 5 9 6 0 11 -4 11
-10 0 -6 32 -10 75 -10 l75 0 0 74 c0 91 -1 91 -140 102 -41 3 -81 10 -90 14
-13 8 -13 9 3 10 9 0 17 3 17 8 0 4 -43 7 -95 8 -52 0 -92 -3 -89 -8 8 -13
-10 -9 -25 4 -8 7 -11 8 -8 2 7 -12 -33 -34 -61 -34 -14 0 -14 2 -3 9 11 7 9
11 -7 20 -17 9 -20 9 -17 -2 4 -8 -3 -13 -15 -14 -11 -1 -19 1 -16 5 5 9 -80
7 -123 -2 -24 -6 -36 -4 -42 5 -7 11 -9 10 -9 -3 0 -13 -8 -18 -30 -18 -16 0
-30 -5 -30 -11 0 -12 -7 -11 -110 10 -25 5 -49 6 -55 1 -5 -4 -25 -11 -42 -15
-18 -3 -36 -12 -40 -18 -10 -16 -64 -39 -72 -32 -3 4 2 11 12 16 27 15 11 28
-43 35 -28 4 -50 10 -50 15 0 9 14 13 36 10 6 -1 18 7 27 16 15 17 11 18 -66
18 -45 0 -93 4 -107 7 -14 4 -32 3 -40 -2z m-82 -80 c-11 -18 -28 -27 -28 -16
0 6 30 36 36 36 2 0 -1 -9 -8 -20z m969 4 c-3 -3 -12 -4 -19 -1 -8 3 -5 6 6 6
11 1 17 -2 13 -5z m-882 -14 c3 -5 3 -11 -2 -11 -67 -10 -81 -6 -40 11 29 12
35 12 42 0z m123 -25 c-3 -3 -9 2 -12 12 -6 14 -5 15 5 6 7 -7 10 -15 7 -18z
m-198 -6 c0 -6 -7 -8 -16 -5 -8 3 -12 2 -9 -4 3 -6 16 -10 27 -10 12 0 19 -2
16 -5 -8 -8 -88 6 -88 16 0 5 7 6 15 3 8 -4 15 -1 15 5 0 6 9 11 20 11 11 0
20 -5 20 -11z m163 -16 c-7 -2 -19 -2 -25 0 -7 3 -2 5 12 5 14 0 19 -2 13 -5z
m-338 -53 c-3 -5 -11 -10 -16 -10 -6 0 -7 5 -4 10 3 6 11 10 16 10 6 0 7 -4 4
-10z"/>
<path d="M3848 233 c6 -2 18 -2 25 0 6 3 1 5 -13 5 -14 0 -19 -2 -12 -5z"/>
<path d="M3848 193 c7 -3 16 -2 19 1 4 3 -2 6 -13 5 -11 0 -14 -3 -6 -6z"/>
<path d="M2448 163 c7 -3 16 -2 19 1 4 3 -2 6 -13 5 -11 0 -14 -3 -6 -6z"/>
<path d="M2335 150 c-8 -13 -1 -24 14 -19 6 3 7 10 2 18 -6 10 -10 10 -16 1z"/>
<path d="M2390 110 c-8 -5 -10 -10 -5 -10 6 0 17 5 25 10 8 5 11 10 5 10 -5 0
-17 -5 -25 -10z"/>
<path d="M2253 104 c27 -9 9 -24 -28 -24 -25 0 -37 -6 -46 -22 -6 -13 -20 -30
-30 -38 -17 -14 -14 -15 44 -18 62 -2 62 -2 79 33 10 19 13 35 7 35 -5 0 -9 8
-7 17 2 11 -4 18 -17 20 -16 1 -16 1 -2 -3z"/>
<path d="M3183 13 c9 -2 23 -2 30 0 6 3 -1 5 -18 5 -16 0 -22 -2 -12 -5z"/>
</g>
</svg>
